<?xml version="1.0" standalone="no"?><!DOCTYPE svg PUBLIC "-//W3C//DTD SVG 1.1//EN" "http://www.w3.org/Graphics/SVG/1.1/DTD/svg11.dtd"><svg t="1637471530449" class="icon" viewBox="0 0 1024 1024" version="1.1" xmlns="http://www.w3.org/2000/svg" p-id="8130" xmlns:xlink="http://www.w3.org/1999/xlink" width="200" height="200"><defs><style type="text/css"></style></defs><path d="M469.333333 554.666667l128 128 59.733334-59.733334-102.4-102.4V341.333333h-85.333334v213.333334zM85.333333 256l149.333334 149.333333 29.866666 29.866667C298.666667 332.8 396.8 256 512 256c140.8 0 256 115.2 256 256s-115.2 256-256 256c-128 0-234.666667-93.866667-251.733333-217.6l-85.333334-85.333333c-4.266667 17.066667-4.266667 29.866667-4.266666 46.933333 0 187.733333 153.6 341.333333 341.333333 341.333333s341.333333-153.6 341.333333-341.333333-153.6-341.333333-341.333333-341.333333C405.333333 170.666667 311.466667 221.866667 247.466667 298.666667l-42.666667-42.666667H85.333333z" fill="#444444" p-id="8131"></path></svg>